After a one night stand with Isabel, Alex realizes that she is pregnant and they decide to get married. However, along with the marriage comes compromise of one's own cultural traditions.


Format : AVI
Format/Info : Audio Video Interleave
File size : 701 MiB
Duration : 1h 49mn
Overall bit rate : 898 Kbps
Writing application : VirtualDubMod 1.5.4.1 (build 2178/release)
Writing library : VirtualDubMod build 2178/release

Video

Format : MPEG-4 Visual
Format profile : Advanced Simple@L5
Format settings, BVOP : 1
Format settings, QPel : No
Format settings, GMC : No warppoints
Format settings, Matrix : Custom
Codec ID : XVID
Codec ID/Hint : XviD
Duration : 1h 49mn
Bit rate : 571 Kbps
Width : 608 pixels
Height : 336 pixels
Display aspect ratio : 16:9
Frame rate : 23.976 fps
Color space : YUV
Chroma subsampling : 4:2:0
Bit depth : 8 bits
Scan type : Progressive
Compression mode : Lossy
Bits/(Pixel*Frame) : 0.117
Stream size : 445 MiB (64%)
Writing library : XviD 1.2.1 (UTC 2008-12-04)

Audio

Format : MPEG Audio
Format version : Version 1
Format profile : Layer 3
Codec ID : 55
Codec ID/Hint : MP3
Duration : 1h 49mn
Bit rate mode : Constant
Bit rate : 320 Kbps
Channel(s) : 2 channels
Sampling rate : 48.0 KHz
Compression mode : Lossy
Stream size : 250 MiB (36%)
Alignment : Aligned on interleaves
Interleave, duration : 83 ms (2.00 video frames)
Interleave, preload duration : 504 ms

Please seed & thank you for downloading, comments are appreciated.